<svg width="68px" height="71px" viewBox="523 544 68 71" version="1.1" xmlns="http://www.w3.org/2000/svg" xmlns:xlink="http://www.w3.org/1999/xlink">
    <!-- Generator: Sketch 40.3 (33839) - http://www.bohemiancoding.com/sketch -->
    <desc>Created with Sketch.</desc>
    <defs></defs>
    <g id="Icq" stroke="none" stroke-width="1" fill="none" fill-rule="evenodd" transform="translate(523.809524, 544.432658)">
        <ellipse id="Oval-1-Copy-54" fill="#01CC01" cx="33.3333333" cy="34.5828367" rx="33.3333333" ry="34.5828367"></ellipse>
        <path d="M48.3097756,39.4588417 C48.0694052,40.4373937 47.4957015,41.1689998 46.6808867,41.5574973 C45.8219978,42.0467733 44.9582941,42.1444746 44.0034793,41.8025199 C43.4290348,41.6578912 43.0460718,41.4101759 42.7127385,41.0212938 L37.6882941,36.7759014 L38.0234793,36.0442953 L38.1679237,35.4573179 L43.5734793,34.9688112 L45.4857015,34.9211145 L45.9664422,34.9688112 C46.6808867,35.2130646 47.3531089,35.6527206 47.73422,36.3843267 C48.2119978,36.9232227 48.4523681,37.6548288 48.4523681,38.4856748 L48.3097756,39.4588417 Z M40.081257,45.1693696 C39.9864422,46.0502203 39.6982941,46.6848943 39.1227385,46.9291477 C38.7894052,47.1714778 38.4064422,47.1714778 38.0234793,47.1245504 C37.1157015,46.8795277 36.3964422,46.1479216 35.8716274,44.9747362 L35.2964422,43.3653567 L34.5797756,39.1195796 L35.391257,38.824937 L36.01422,38.4856748 L38.0234793,40.5820225 L39.267183,42.1444746 L39.5057015,42.6318273 C39.9364422,43.4619041 40.1768126,44.2442841 40.081257,45.1693696 L40.081257,45.1693696 Z M33.7931089,46.3902517 L33.2549607,46.8795277 C32.9186644,47.7573012 32.0994052,48.4900612 31.2382941,48.8785587 C30.3764422,49.3678347 29.3423681,49.4647667 28.4834793,49.2232059 C27.5238496,48.9781833 26.7460718,48.3919752 26.3631089,47.6107492 C26.1257015,47.1245504 25.9053311,46.537573 25.9053311,45.9505957 L26.1257015,44.8301075 C26.2223681,44.3412161 26.4553311,43.8515555 26.8375533,43.4619041 L30.8519978,38.5799143 C31.3297756,38.824937 32.297183,39.0691903 32.8245904,39.1195796 C32.9197756,40.7762712 33.7931089,42.5368186 33.7931089,44.4377635 L33.7931089,46.3902517 Z M21.8049607,33.3582777 L21.3279237,33.2617304 C20.467183,33.114409 19.8916274,32.7255269 19.5105163,31.9912283 C19.1275533,31.2596222 19.1275533,30.5287854 19.4157015,29.79641 C19.7497756,28.8667087 20.371257,28.1362565 21.2790348,27.7458358 C22.1416274,27.2573291 23.0008867,27.1115464 23.9586644,27.3550305 L25.2501459,27.8920032 L29.4605163,31.0153688 C29.0779237,31.5046448 28.8382941,31.9912283 28.6938496,32.4805043 L21.8049607,33.3582777 Z M26.5438496,21.6433486 C26.5897756,20.7655751 26.9231089,20.1805211 27.4986644,19.8385664 C27.7868126,19.594313 28.2168126,19.594313 28.5979237,19.7897157 C29.4605163,20.0347384 30.1790348,20.6686431 30.7508867,21.8887559 C30.991257,22.3768779 31.2294052,22.865 31.3260718,23.4500541 L32.2816274,29.2105866 L31.5657015,29.453686 L27.307183,24.7190175 L27.0675533,24.2316648 C26.6849607,23.3527374 26.447183,22.522276 26.5438496,21.6433486 L26.5438496,21.6433486 Z M33.4786644,31.1626902 C34.3397756,31.1626902 35.1527385,31.5046448 35.6801459,32.0408483 C36.3475533,32.7255269 36.6368126,33.4559791 36.6368126,34.3352911 C36.6368126,35.2130646 36.3475533,36.0442953 35.6801459,36.6312726 C35.0575533,37.2659467 34.3397756,37.6040549 33.4786644,37.6040549 C32.5701459,37.6040549 31.8038496,37.2659467 31.2294052,36.6312726 C30.6079237,36.0442953 30.2745904,35.2130646 30.2745904,34.3352911 C30.2745904,33.4559791 30.6079237,32.7255269 31.2294052,32.0408483 C31.8038496,31.5046448 32.5701459,31.1626902 33.4786644,31.1626902 L33.4786644,31.1626902 Z M34.7216274,21.4979505 C34.961257,20.5220911 35.631257,19.7897157 36.4923681,19.3015937 C37.3538496,18.8138563 38.3097756,18.7153856 39.2182941,19.0569557 C40.2249607,19.3015937 40.941257,19.8385664 41.3731089,20.6686431 C41.6116274,21.1571498 41.75422,21.7429732 41.75422,22.3768779 L41.6116274,23.4500541 C41.4208867,23.9862575 41.1805163,24.4759181 40.89422,24.9151895 L36.5890348,30.2837627 C36.1590348,29.9421927 35.6801459,29.6967854 35.2005163,29.453686 L34.7216274,23.9397147 L34.6749607,21.9860726 L34.7216274,21.4979505 Z M42.8553311,27.6477498 L43.4290348,27.4034965 C44.2916274,27.014999 45.1027385,26.9153744 45.9664422,27.014999 C46.7768126,27.1115464 47.3531089,27.5004285 47.6382941,28.0874059 L47.8290348,28.7213106 L47.73422,29.2105866 C47.4001459,30.089514 46.6808867,30.7722694 45.4857015,31.3084729 C45.0079237,31.5515723 44.4823681,31.6504276 43.9086644,31.7462056 L38.0234793,32.4805043 L37.9268126,32.1385496 L37.8319978,31.9912283 L38.0234793,31.7462056 L42.8553311,27.6477498 Z M49.5519978,35.4084673 C49.1686644,34.8226439 48.7875533,34.2375898 48.2119978,33.8467844 C47.73422,33.5048298 47.1597756,33.2617304 46.6349607,33.0167077 C48.117183,32.2839477 48.761257,31.2596222 49.2401459,29.9421927 C49.5760718,28.8667087 48.5934793,27.9897045 48.5934793,27.1115464 L48.5934793,27.014999 C48.5934793,26.036447 47.6627385,25.4036962 46.4668126,25.0617415 C45.7479237,24.9151895 45.1390348,24.9151895 44.4216274,24.9621169 L42.9438496,25.3048409 L43.5231089,24.0851128 C43.9997756,22.522276 43.8823681,21.0105978 43.0694052,19.594313 L42.9382941,19.3519829 C42.2205163,18.1303315 41.17422,17.3987254 39.7386644,17.0083047 C38.2564422,16.6174994 37.3657015,16.7640514 36.0268126,17.4956575 C34.6845904,18.2288022 33.7931089,19.3519829 33.7931089,20.8144258 L33.7931089,20.9121272 L33.2549607,21.2536972 L32.8168126,20.9121272 L32.21422,20.0347384 C31.4479237,18.8138563 30.4308867,18.0814809 29.2338496,17.7387569 C28.1805163,17.4956575 27.2916274,17.5933588 26.3819978,18.0814809 C25.3786644,18.7153856 24.7879237,19.6939376 24.547183,21.0590638 C24.3079237,22.4745793 24.5401459,23.8416287 25.2582941,25.2071396 L25.5879237,25.6964156 L24.4397756,25.3048409 C23.0038496,24.9621169 21.6638496,25.1586736 20.3253311,25.8906643 C18.9357015,26.6222704 18.0749607,27.6477498 17.4997756,29.0628807 C16.9731089,30.4295455 17.0227385,31.7462056 17.6923681,32.967857 C17.9790348,33.5048298 18.4094052,33.9444858 18.791257,34.2375898 C19.3660718,34.8226439 20.0838496,35.1642139 20.9449607,35.3107659 L21.2790348,35.4084673 L20.5627385,36.0442953 C19.8916274,36.6312726 19.5105163,37.3617248 19.271257,38.0941002 C19.0327385,38.9722583 19.1275533,39.8511857 19.6053311,40.6824164 C19.8457015,41.0712985 20.0838496,41.4101759 20.467183,41.6578912 C20.8501459,41.9971533 21.3279237,42.2421759 21.9016274,42.2917959 C22.9549607,42.5368186 24.0553311,42.5368186 25.2501459,42.1444746 L24.3882941,43.60961 L24.1508867,44.2442841 C23.6719978,45.8032744 23.81422,47.1714778 24.5331089,48.5854547 C24.8682941,49.1255046 25.2501459,49.6128573 25.6334793,50.0517441 C26.2068126,50.5875628 26.9231089,50.9306715 27.7868126,51.1756941 C29.2194052,51.5645762 30.6549607,51.5138023 32.04422,50.7829655 C33.3838496,50.0517441 34.2431089,48.8785587 34.6749607,47.4157311 L34.7216274,47.1245504 C35.631257,48.1469526 36.4923681,48.830862 37.4505163,49.0758846 C38.4064422,49.3678347 39.3631089,49.320138 40.2249607,48.7339299 C41.0379237,48.2446539 41.6116274,47.4157311 41.8986644,46.3902517 C42.137183,45.3166909 42.137183,44.2442841 41.8986644,43.0264792 C42.3757015,43.3653567 42.8553311,43.60961 43.4290348,43.7550081 C44.9582941,44.2442841 46.2997756,44.1935102 47.6382941,43.4619041 C48.9301459,42.7314519 49.7919978,41.5574973 50.2219978,40.0458191 C50.6053311,38.5799143 50.5094052,37.1655528 49.7919978,35.7992726 L49.5519978,35.4084673 Z" id="Fill-143" fill="#FFFFFF"></path>
    </g>
</svg>
