<svg width="68px" height="70px" viewBox="628 0 68 70" version="1.1" xmlns="http://www.w3.org/2000/svg" xmlns:xlink="http://www.w3.org/1999/xlink">
    <!-- Generator: Sketch 40.3 (33839) - http://www.bohemiancoding.com/sketch -->
    <desc>Created with Sketch.</desc>
    <defs></defs>
    <g id="Linkedin" stroke="none" stroke-width="1" fill="none" fill-rule="evenodd" transform="translate(628.571429, 0.000000)">
        <ellipse id="Oval-1-Copy-5" fill="#0976B4" cx="33.3333333" cy="34.5828367" rx="33.3333333" ry="34.5828367"></ellipse>
        <path d="M20.3478836,25.6573404 C22.6426984,25.6573404 24.5030688,23.8971777 24.5030688,21.7235152 C24.5030688,19.5479295 22.6426984,17.7854589 20.3478836,17.7854589 C18.0508466,17.7854589 16.1904762,19.5479295 16.1904762,21.7235152 C16.1904762,23.8971777 18.0508466,25.6573404 20.3478836,25.6573404" id="Fill-182" fill="#FFFFFF"></path>
        <polygon id="Fill-183" fill="#FFFFFF" points="17.1428571 50.9629512 24.5984127 50.9629512 24.5984127 28.6543504 17.1428571 28.6543504"></polygon>
        <path d="M35.062381,38.5553529 C35.062381,35.9970395 36.2290476,33.4952698 39.0186772,33.4952698 C41.8083069,33.4952698 42.4942328,35.9970395 42.4942328,38.4941934 L42.4942328,50.6780121 L49.916455,50.6780121 L49.916455,37.9960705 C49.916455,29.1852559 44.896455,27.6662694 41.8083069,27.6662694 C38.7227513,27.6662694 37.0208995,28.7490618 35.062381,31.3727659 L35.062381,28.3694113 L27.6190476,28.3694113 L27.6190476,50.6780121 L35.062381,50.6780121 L35.062381,38.5553529 Z" id="Fill-184" fill="#FFFFFF"></path>
    </g>
</svg>
