<svg width="68px" height="72px" viewBox="628 651 68 72" version="1.1" xmlns="http://www.w3.org/2000/svg" xmlns:xlink="http://www.w3.org/1999/xlink">
    <!-- Generator: Sketch 40.3 (33839) - http://www.bohemiancoding.com/sketch -->
    <desc>Created with Sketch.</desc>
    <defs></defs>
    <g id="Messenger" stroke="none" stroke-width="1" fill="none" fill-rule="evenodd" transform="translate(628.571429, 652.133492)">
        <ellipse id="Oval-1-Copy-58" fill="#0084FF" cx="33.3333333" cy="34.5828367" rx="33.3333333" ry="34.5828367"></ellipse>
        <path d="M35.3527337,39.3463632 L31.1346267,34.6499286 L22.904174,39.3463632 L31.957672,29.3130711 L36.2786596,34.0095057 L44.4062316,29.3130711 L35.3527337,39.3463632 Z M33.7066432,17.7854589 C24.5587008,17.7854589 17.1428571,24.9536057 17.1428571,33.7960314 C17.1428571,38.8345586 19.5514991,43.3288331 23.3156966,46.2636778 L23.3156966,52.3682956 L28.9555115,49.1370418 C30.4606555,49.571889 32.0552028,49.806604 33.7066432,49.806604 C42.8545855,49.806604 50.2704292,42.6384572 50.2704292,33.7960314 C50.2704292,24.9536057 42.8545855,17.7854589 33.7066432,17.7854589 L33.7066432,17.7854589 Z" id="Page-1" fill="#FFFFFF"></path>
    </g>
</svg>
