<svg width="68px" height="70px" viewBox="419 0 68 70" version="1.1" xmlns="http://www.w3.org/2000/svg" xmlns:xlink="http://www.w3.org/1999/xlink">
<!-- Generator: Sketch 40.3 (33839) - http://www.bohemiancoding.com/sketch -->
<desc>Created with Sketch.</desc>
<defs></defs>
<g id="Skype" stroke="none" stroke-width="1" fill="none" fill-rule="evenodd" transform="translate(419.047619, 0.000000)">
<ellipse id="Oval-1-Copy-3" fill="#00AFF0" cx="33.3333333" cy="34.5828367" rx="33.3333333" ry="34.5828367"></ellipse>
<path d="M40.3021164,40.8680646 C39.7173016,41.7312213 38.8606349,42.4093609 37.7324868,42.896329 C36.6050794,43.3879129 35.2684127,43.6317816 33.7224868,43.6317816 C31.8684127,43.6317816 30.3402646,43.2979046 29.134709,42.6293813 C28.2821164,42.1485676 27.5873016,41.5050466 27.0528571,40.70228 C26.5198942,39.9002828 26.2528571,39.1186721 26.2528571,38.3589865 C26.2528571,37.9197151 26.4124868,37.5423725 26.7328571,37.2296513 C27.0528571,36.9138529 27.4613757,36.7573 27.9561905,36.7573 C28.357672,36.7573 28.6984127,36.8788497 28.9750794,37.1250263 C29.2535979,37.3700489 29.4906349,37.7312361 29.6858201,38.2132038 C29.9258201,38.7836411 30.1835979,39.2613776 30.4621164,39.6437206 C30.7387831,40.0272176 31.1306349,40.34417 31.6328571,40.5922699 C32.137672,40.8396004 32.8002646,40.9653813 33.6198942,40.9653813 C34.7469312,40.9653813 35.6635979,40.7161275 36.3684127,40.213004 C37.0724868,39.7133425 37.4265608,39.0859768 37.4265608,38.3355228 C37.4265608,37.7408524 37.2354497,37.2561922 36.8558201,36.887312 C36.4750794,36.5153545 35.9839683,36.2322514 35.381746,36.0368487 C34.7795238,35.8402921 33.974709,35.6321959 32.9658201,35.4125603 C31.6161905,35.1125325 30.4865608,34.7574997 29.577672,34.3547702 C28.6684127,33.950502 27.9454497,33.4008358 27.4124868,32.7038483 C26.8780423,32.0053222 26.611746,31.1390883 26.611746,30.1047619 C26.611746,29.1169783 26.8924868,28.2411281 27.457672,27.475288 C28.0210053,26.708294 28.8358201,26.1186242 29.9050794,25.706663 C30.9728571,25.2947018 32.2280423,25.0896829 33.671746,25.0896829 C34.8243386,25.0896829 35.8221164,25.2270033 36.6632275,25.4985668 C37.5043386,25.7720537 38.2013757,26.1355488 38.7569312,26.5878983 C39.3124868,27.0410171 39.7191534,27.5152917 39.9743386,28.01303 C40.2310053,28.5084605 40.3591534,28.9965825 40.3591534,29.466626 C40.3591534,29.898589 40.1995238,30.2905483 39.8787831,30.6359648 C39.5591534,30.9825353 39.1598942,31.1571669 38.681746,31.1571669 C38.244709,31.1571669 37.9135979,31.0521572 37.687672,30.844061 C37.4613757,30.6359648 37.2150794,30.2959334 36.9513757,29.8228127 C36.6091534,29.1465964 36.2006349,28.618086 35.7202646,28.2399741 C35.241746,27.8595543 34.4743386,27.6706907 33.4143386,27.6706907 C32.4335979,27.6706907 31.6406349,27.8745557 31.0384127,28.2876708 C30.4358201,28.698478 30.134709,29.1950624 30.134709,29.7739621 C30.134709,30.1309181 30.2384127,30.4428701 30.4428571,30.7036634 C30.6461905,30.9656107 30.9291534,31.1875543 31.2887831,31.3756486 C31.6461905,31.562589 32.0095238,31.7095256 32.3765608,31.8172279 C32.7439683,31.9230069 33.3502646,32.0772519 34.197672,32.2811169 C35.2554497,32.5176773 36.2135979,32.7796245 37.0724868,33.0638816 C37.9310053,33.3500619 38.6613757,33.6966324 39.2635979,34.1024391 C39.8658201,34.5113231 40.3361905,35.0279093 40.6732275,35.6521978 C41.0102646,36.274563 41.1798942,37.0396337 41.1798942,37.9447174 C41.1798942,39.0286638 40.8858201,40.0029846 40.3021164,40.8680646 M48.2280423,34.147828 C48.2280423,25.625117 41.5750794,18.7160167 33.3684127,18.7160167 C32.6010053,18.7160167 31.8535979,18.7929469 31.1173016,18.9102655 C29.6361905,17.5970671 27.717672,16.7973778 25.6165608,16.7973778 C20.937672,16.7973778 17.1428571,20.7369728 17.1428571,25.5989607 C17.1428571,27.5818363 17.7832275,29.4062358 18.8502646,30.8779103 C18.6321164,31.9333925 18.5095238,33.0246472 18.5095238,34.147828 C18.5095238,42.6724622 25.1610053,49.5819471 33.3684127,49.5819471 C34.4232275,49.5819471 35.4513757,49.4623206 36.4435979,49.2449928 C37.931746,50.5951177 39.8739683,51.4159628 42.0024868,51.4159628 C46.6824868,51.4159628 50.4761905,47.4763678 50.4761905,42.6166878 C50.4761905,40.213004 49.5480423,38.0378029 48.0432275,36.4511178 C48.1528571,35.6956633 48.2280423,34.9317466 48.2280423,34.147828" id="Fill-12" fill="#FFFFFF"></path>
</g>
</svg>
