<svg width="69px" height="71px" viewBox="1172 108 69 71" version="1.1" xmlns="http://www.w3.org/2000/svg" xmlns:xlink="http://www.w3.org/1999/xlink">
    <!-- Generator: Sketch 40.3 (33839) - http://www.bohemiancoding.com/sketch -->
    <desc>Created with Sketch.</desc>
    <defs></defs>
    <g id="Slack" stroke="none" stroke-width="1" fill="none" fill-rule="evenodd" transform="translate(1173.333333, 108.688915)">
        <ellipse id="Oval-1-Copy-59" fill="#CE1E5B" cx="33.3333333" cy="34.5828367" rx="33.3333333" ry="34.5828367"></ellipse>
        <path d="M35.9196437,30.7817988 L37.9509043,37.265745 L31.7007478,39.3733844 C31.0376147,37.2559309 30.3316573,35.0017323 29.6698653,32.8885571 C31.7106345,32.2006268 33.8831056,31.4683015 35.9196437,30.7817988 Z M34.0842959,24.9232216 L33.1117424,21.8187533 C32.6047538,20.2007925 33.4582987,18.4628883 35.0180746,17.9371787 C36.5775772,17.4111855 38.2526896,18.2967255 38.759405,19.9149698 C38.759405,19.9149698 39.1399251,21.1299574 39.7315195,23.0188995 L42.7229358,22.0101524 C44.2827117,21.4844428 45.9578242,22.3699828 46.4645396,23.9879435 C46.9712549,25.6061878 46.1177102,27.344092 44.5582075,27.8698017 C44.5582075,27.8698017 43.3871924,28.264542 41.5665979,28.878251 C42.2282805,30.9909853 42.9341108,33.2446842 43.5971492,35.3617529 L46.588622,34.3529868 C48.1481246,33.8272771 49.8232371,34.7128172 50.3299524,36.330778 C50.8366678,37.9490222 49.9833963,39.6869263 48.4236204,40.212636 C48.4236204,40.212636 47.2526844,40.6073542 45.4321953,41.2210338 C46.0381153,43.1557372 46.4309804,44.4101699 46.4352955,44.4239843 C46.9381846,46.0297522 45.9775025,47.7662386 44.4016013,48.2369387 C42.8907478,48.6880736 41.3167598,47.838545 40.7895462,46.3269171 L39.7862338,43.1242637 C37.7493755,43.8108796 35.5764828,44.5433515 33.5353376,45.2314108 C34.1412448,47.1661262 34.5341016,48.4205418 34.5384168,48.4342924 C35.0413059,50.0403439 34.0806238,51.7768304 32.5047226,52.2472469 C30.9938691,52.6986653 29.419881,51.8491368 28.8926675,50.3375088 L27.8892933,47.1346582 C26.0233931,47.7636393 24.8134546,48.1714961 24.8001347,48.1759746 C23.2523843,48.6977144 21.5786384,47.7010212 21.1249451,46.0660471 C20.69011,44.498559 21.5089446,42.8655699 22.9659562,42.3188773 L26.0543658,41.2774227 L24.0227004,34.7921842 C22.1574226,35.4209607 20.9479776,35.8286626 20.9347218,35.8331402 C19.3866982,36.35488 17.7129523,35.3581868 17.2595322,33.7232127 C16.8244239,32.1557246 17.6432584,30.5227355 19.1002701,29.9760429 L22.1877574,28.9348993 L21.2148638,25.829345 C20.7078751,24.2111007 21.56142,22.4731966 23.1211959,21.9474869 C24.6806985,21.4217773 26.3558109,22.3073173 26.8627996,23.925278 C26.8627996,23.925278 27.2434727,25.1408114 27.8352677,27.0304805 L34.0842959,24.9232216 Z" id="Combined-Shape" fill="#FFFFFF"></path>
    </g>
</svg>
