<svg width="68px" height="72px" viewBox="314 758 68 72" version="1.1" xmlns="http://www.w3.org/2000/svg" xmlns:xlink="http://www.w3.org/1999/xlink">
    <!-- Generator: Sketch 40.3 (33839) - http://www.bohemiancoding.com/sketch -->
    <desc>Created with Sketch.</desc>
    <defs></defs>
    <g id="Telegram" stroke="none" stroke-width="1" fill="none" fill-rule="evenodd" transform="translate(314.285714, 759.834327)">
        <ellipse id="Oval-1-Copy-58" fill="#2DA4D7" cx="33.3333333" cy="34.5828367" rx="33.3333333" ry="34.5828367"></ellipse>
        <g id="Group-76" transform="translate(13.333333, 17.785459)" fill="#FFFFFF">
            <path d="M15.1515152,35.3463539 C13.969697,35.3463539 14.1818182,34.8747697 13.7575758,33.7115289 L10.3030303,21.8904865 L31.7575758,7.99447394 L34.2727273,8.68613068 L32.1818182,14.5966519 L15.1515152,35.3463539 L15.1515152,35.3463539 Z" id="path2993"></path>
            <path d="M15.7575758,22.7617943 L30.4242424,33.9854968 C32.0909091,34.9286651 33.3030303,34.4570809 33.7272727,32.3821107 L39.6969697,3.20677213 C40.3030303,0.660217792 38.7575758,-0.471584137 37.1515152,0.282950482 L2.12121212,14.3047188 C-0.272727273,15.310765 -0.242424242,16.6940784 1.6969697,17.2914184 L10.6969697,20.21524 L31.5151515,6.60217792 C32.4848485,5.97339907 33.3939394,6.31922744 32.6666667,7.01088417 L15.7575758,22.7617943 L15.7575758,22.7617943 Z" id="path2991"></path>
        </g>
    </g>
</svg>
