<svg width="67px" height="70px" viewBox="0 0 67 70" version="1.1" xmlns="http://www.w3.org/2000/svg" xmlns:xlink="http://www.w3.org/1999/xlink">
<!-- Generator: Sketch 40.3 (33839) - http://www.bohemiancoding.com/sketch -->
<desc>Created with Sketch.</desc>
<defs></defs>
<g id="Twitter" stroke="none" stroke-width="1" fill="none" fill-rule="evenodd">
<ellipse id="Oval-1" fill="#55ACEE" cx="33.3333333" cy="34.5828367" rx="33.3333333" ry="34.5828367"></ellipse>
<path d="M48.6020317,21.3555275 C47.6611852,21.9807632 45.5010159,22.8893147 44.4356825,22.8893147 L44.4356825,22.8911811 C43.2192381,21.5727735 41.5066455,20.749702 39.6073228,20.749702 C35.9184127,20.749702 32.9271323,23.8531109 32.9271323,27.678807 C32.9271323,28.2103507 32.9864974,28.7288298 33.0962328,29.2260322 L33.0951534,29.2260322 C28.0912169,29.0897868 22.6184762,26.4876863 19.3238942,22.0341415 C17.2982857,25.671707 19.0511746,29.7172621 21.3498624,31.1913254 C20.5630053,31.2529157 19.1144974,31.09726 18.4326984,30.4070745 C18.3870053,32.8214176 19.5059471,36.0203848 23.5859471,37.180897 C22.8001693,37.6194952 21.4092275,37.4937015 20.8044233,37.4003828 C21.0166984,39.4384646 23.7676402,42.102902 26.7758307,42.102902 C25.7036614,43.3895811 21.6697143,45.7232968 17.1428571,44.9808527 C20.2172487,46.9215098 23.800381,48.045441 27.5929101,48.045441 C38.3703704,48.045441 46.740127,38.9834423 46.289672,27.8042274 C46.287873,27.7919094 46.287873,27.7795913 46.2867937,27.7661534 C46.287873,27.7374112 46.289672,27.708669 46.289672,27.678807 C46.289672,27.6440924 46.2867937,27.6112442 46.2857143,27.5776495 C47.2668571,26.8814915 48.5833228,25.6500571 49.5238095,24.0292967 C48.9783704,24.3409814 47.3420529,24.9650973 45.8194286,25.1200065 C46.7966138,24.5727852 48.2444021,22.7806916 48.6020317,21.3555275" id="Fill-1" fill="#FFFFFF"></path>
</g>
</svg>
