<svg width="68px" height="72px" viewBox="733 758 68 72" version="1.1" xmlns="http://www.w3.org/2000/svg" xmlns:xlink="http://www.w3.org/1999/xlink">
    <!-- Generator: Sketch 40.3 (33839) - http://www.bohemiancoding.com/sketch -->
    <desc>Created with Sketch.</desc>
    <defs></defs>
    <g id="WeChat" stroke="none" stroke-width="1" fill="none" fill-rule="evenodd" transform="translate(733.333333, 759.834327)">
        <ellipse id="Oval-1-Copy-59" fill="#2DC100" cx="33.3333333" cy="34.5828367" rx="33.3333333" ry="34.5828367"></ellipse>
        <g id="Group-79" transform="translate(14.285714, 17.785459)" fill="#FFFFFF">
            <path d="M26.8146018,11.4582425 C23.2433628,11.6518146 20.1379056,12.7749917 17.6166667,15.3125456 C15.0693215,17.8762662 13.9064897,21.0177955 14.2243363,24.9121902 C12.8284661,24.7328491 11.5570796,24.5354515 10.2784661,24.4237459 C9.83687316,24.3851845 9.31283186,24.4399661 8.93879056,24.6589398 C7.69719764,25.3857914 6.50693215,26.2064452 5.09616519,27.1213602 C5.35501475,25.9066763 5.52256637,24.8430245 5.81917404,23.8199234 C6.03731563,23.0679763 5.93628319,22.6494627 5.26858407,22.1597942 C0.981563422,19.0196421 -0.825516224,14.3202018 0.526843658,9.48197114 C1.7780236,5.00609515 4.85058997,2.29164851 9.02551622,0.876659608 C14.7238938,-1.05447048 21.1278761,0.915374023 24.5929204,5.60915249 C25.8443953,7.30462962 26.6117994,9.20760376 26.8146018,11.4582425 L26.8146018,11.4582425 Z M10.3784661,9.95067569 C10.4113569,9.06575292 9.67227139,8.26851142 8.79439528,8.2418857 C7.89557522,8.21449487 7.15634218,8.92711553 7.1300885,9.84600905 C7.10353982,10.7772973 7.79011799,11.5235827 8.69542773,11.547454 C9.59292035,11.5710193 10.3452802,10.8574805 10.3784661,9.95067569 L10.3784661,9.95067569 Z M18.9538348,8.24127361 C18.0727139,8.25810597 17.3281711,9.03667886 17.3438053,9.92512111 C17.359882,10.8460039 18.0902655,11.5664287 18.9963127,11.5551051 C19.9047198,11.5437815 20.5936578,10.8157057 20.5851032,9.87538916 C20.5775811,8.95236407 19.8504425,8.22428824 18.9538348,8.24127361 L18.9538348,8.24127361 Z" id="Shape"></path>
            <path d="M34.8379056,34.5568231 C33.7070796,34.034408 32.669764,33.2506324 31.5653392,33.1309697 C30.4651917,33.011766 29.3087021,33.6702171 28.1576696,33.7923282 C24.6516224,34.1644762 21.5106195,33.1507094 18.920649,30.6657949 C13.9948378,25.9389638 14.6986726,18.6912581 20.3976401,14.8176744 C25.4626844,11.3749989 32.8908555,12.5226594 36.4619469,17.2995285 C39.5783186,21.4678315 39.2120944,27.0010853 35.4076696,30.5028271 C34.3067847,31.5162878 33.9106195,32.3502545 34.6169617,33.6862843 C34.7473451,33.9329548 34.7622419,34.2452715 34.8379056,34.5568231 L34.8379056,34.5568231 Z M21.9656342,21.6266677 C22.6855457,21.6274328 23.2783186,21.042891 23.3056047,20.3051749 C23.3343658,19.5241536 22.7289086,18.869069 21.9750737,18.8658556 C21.2287611,18.8623361 20.6035398,19.526602 20.6294985,20.2959936 C20.6539823,21.0311084 21.250885,21.6257495 21.9656342,21.6266677 L21.9656342,21.6266677 Z M30.2637168,18.868916 C29.5651917,18.8638663 28.9716814,19.4571302 28.9432153,20.1893377 C28.9129794,20.9723482 29.4995575,21.6153441 30.2464602,21.6173334 C30.9688791,21.6197817 31.5396755,21.0529904 31.5659292,20.3071641 C31.5939528,19.5223174 31.0070796,18.8742717 30.2637168,18.868916 L30.2637168,18.868916 Z" id="Shape"></path>
        </g>
    </g>
</svg>
