<svg width="68px" height="72px" viewBox="419 651 68 72" version="1.1" xmlns="http://www.w3.org/2000/svg" xmlns:xlink="http://www.w3.org/1999/xlink">
    <!-- Generator: Sketch 40.3 (33839) - http://www.bohemiancoding.com/sketch -->
    <desc>Created with Sketch.</desc>
    <defs></defs>
    <g id="WhatsApp" stroke="none" stroke-width="1" fill="none" fill-rule="evenodd" transform="translate(419.047619, 652.133492)">
        <ellipse id="Oval-1-Copy-58" fill="#3ACE01" cx="33.3333333" cy="34.5828367" rx="33.3333333" ry="34.5828367"></ellipse>
        <path d="M45.4922289,22.8111115 C42.3727704,19.5720121 38.2242311,17.7872795 33.8041919,17.7854589 C24.6971132,17.7854589 17.2850414,25.4724321 17.2813968,34.9209839 C17.2802269,37.9412397 18.0410474,40.889419 19.4869168,43.4880928 L17.1428571,52.3682956 L25.9018095,49.9853376 C28.3151615,51.3504957 31.0322297,52.0699532 33.7976226,52.0711669 L33.8043719,52.0711669 C33.8049118,52.0711669 33.8038319,52.0711669 33.8044169,52.0711669 C42.9105956,52.0711669 50.3233424,44.3832601 50.327032,34.9346149 C50.3287868,30.3557524 48.6117775,26.0502108 45.4922289,22.8111115 L45.4922289,22.8111115 Z M33.8044169,49.1769516 L33.7987925,49.1769516 C31.3345512,49.1759713 28.9175996,48.4893776 26.8090887,47.1916279 L26.3075744,46.8829688 L21.1098866,48.2970959 L22.4972625,43.0411161 L22.1706438,42.5022232 C20.7959565,40.2344755 20.0699171,37.6133011 20.070997,34.9221042 C20.0739666,27.0688977 26.2346375,20.6797209 33.8097263,20.6797209 C37.477764,20.681168 40.925866,22.1647107 43.5187031,24.8568879 C46.1115402,27.5490651 47.5386467,31.1277267 47.5372968,34.9335412 C47.5343272,42.7874013 41.3737013,49.1769516 33.8044169,49.1769516 L33.8044169,49.1769516 Z M38.5162036,37.116375 C38.1377957,36.9734358 37.8626062,36.9020129 37.5872818,37.3307371 C37.3121373,37.759368 36.5209452,38.7238575 36.280042,39.0095958 C36.0392287,39.2953808 35.7984154,39.331139 35.3855863,39.1167769 C34.9727121,38.9024614 33.6424799,38.450303 32.065585,36.9915483 C30.8383463,35.8562973 30.0097183,34.4539807 29.768905,34.0252565 C29.5280918,33.5965789 29.7433029,33.3648979 29.9499649,33.1513761 C30.1356593,32.9595612 30.3627941,32.6512756 30.5692311,32.4012487 C30.7756232,32.1512685 30.8444656,31.9725711 30.9820603,31.6868328 C31.1197,31.4010478 31.0508577,31.1509742 30.9476391,30.9366587 C30.8444656,30.7223433 30.0187623,28.6147604 29.6747305,27.757452 C29.3396527,26.922504 28.9992205,27.0354736 28.7458086,27.0223561 C28.5052653,27.0099388 28.2297609,27.0073246 27.9545715,27.0073246 C27.6793821,27.0073246 27.2320867,27.114459 26.8536788,27.5431365 C26.4752708,27.9718141 25.4087542,29.0077265 25.4087542,31.1152627 C25.4087542,33.222799 26.8880549,35.2589123 27.094492,35.5446507 C27.3009291,35.8304357 30.0056237,40.1554435 34.1470538,42.0101519 C35.1320844,42.4512935 35.901049,42.7147647 36.5006525,42.9121347 C37.4896426,43.2379259 38.3896327,43.1919912 39.1010487,43.0817758 C39.8942206,42.958863 41.5435574,42.0459568 41.8876792,41.0457558 C42.231711,40.0455082 42.231711,39.1882465 42.1284925,39.0096425 C42.025274,38.8310385 41.7500845,38.7238575 41.3372554,38.5094953 C40.9243362,38.2951799 38.8946566,37.2592675 38.5162036,37.116375 Z" id="Oval-1-Copy-58" fill="#FFFFFF"></path>
    </g>
</svg>
