<svg width="68px" height="71px" viewBox="104 329 68 71" version="1.1" xmlns="http://www.w3.org/2000/svg" xmlns:xlink="http://www.w3.org/1999/xlink">
    <!-- Generator: Sketch 40.3 (33839) - http://www.bohemiancoding.com/sketch -->
    <desc>Created with Sketch.</desc>
    <defs></defs>
    <g id="Yahoo" stroke="none" stroke-width="1" fill="none" fill-rule="evenodd" transform="translate(104.761905, 329.030989)">
        <ellipse id="Oval-1-Copy-30" fill="#400191" cx="33.3333333" cy="34.5828367" rx="33.3333333" ry="34.5828367"></ellipse>
        <path d="M41.6811111,16.7973778 C40.4485185,19.2156783 35.9022222,27.0406325 33.0088889,32.0514803 C30.0740741,26.9321609 26.5996296,21.0219991 24.3362963,16.7973778 C22.5414815,17.200492 21.7907407,17.2262636 20,16.7973778 C23.5544444,22.4382839 29.25,33.1827387 31.1874074,36.7099879 L30.927037,51.4159628 C30.927037,51.4159628 32.177037,51.1955578 33.0125926,51.1955578 C33.9381481,51.1955578 35.09,51.4159628 35.09,51.4159628 L34.83,36.7099879 C38.4451852,30.0289856 44.4133333,19.1291319 46.0522222,16.7973778 C45.332963,17.3047324 44.2311111,17.5643718 43.2174074,17.805548 L41.6811111,16.7973778 Z" id="Fill-69" fill="#FFFFFF"></path>
    </g>
</svg>
